<svg xmlns="http://www.w3.org/2000/svg" viewBox="0 0 150 150"><title>avatar</title><path d="M68.58,85.79c-2.58-3.28-4.82-6.12-9.44-6-3.53.1-8.3,2-14.51,5.7l3,8.1c4-2.57,7.22-3.83,9.91-3.91,3.83-.1,6.39,2.08,9.63,4.85,5.43,4.64,12.88,11,31.76,10.48.58,0,1.19,0,1.8-.08l2.59-14.09c-6.88,2.45-12.62,3.72-17.41,3.85C75.8,95,72,90.09,68.58,85.79Z"/><path d="M86.06,84c-4.18.11-6.72-2.18-9.66-4.83C72.6,75.73,68.29,71.84,59,72.1c-5,.13-10.87,1.46-17.84,4l2.68,7.19c6.55-3.67,11.67-5.53,15.56-5.63,5.58-.15,8.17,3.15,10.91,6.64,3.17,4.05,6.46,8.24,14.87,8h0c5-.13,11.17-1.8,18.87-5L106.62,73C97.31,80.42,90.84,83.87,86.06,84Z"/><path d="M86.85,68.49a43.84,43.84,0,0,1-10.09-1.37,81.57,81.57,0,0,0-20.6-2.2,101.42,101.42,0,0,0-18.33,2.34l2.5,6.7c7-2.3,13-3.52,18.14-3.66,10.26-.28,15.31,3.73,19.38,7,2.84,2.25,5.29,4.19,8.79,4.1h0c4.66-.13,11.15-4,20.71-12.37l2.86-15.53C99.08,65.6,92.87,68.32,86.85,68.49Z"/><path d="M67.53,97.74C64,95.08,61.14,93,57.3,93.08c-2.46.07-5.28,1.06-8.7,3l.06.15a15,15,0,0,0,8.22,7.93L92.34,116a5.36,5.36,0,0,0,7.15-4.22l.63-3.43C81.62,108.23,73.52,102.2,67.53,97.74Z"/><path d="M108.2,34,41,57.67a6.2,6.2,0,0,0-3.92,7.52,114.18,114.18,0,0,1,20-2.44A114.82,114.82,0,0,1,75,63.81a69.66,69.66,0,0,0,9.88.73h0c7.42-.2,14.31-3,26.27-16L113,38.14C113.66,34.72,111.48,32.86,108.2,34Z"/></svg>