<svg xmlns="http://www.w3.org/2000/svg" viewBox="0 0 150 150"><defs><style>.a{fill:#fff}</style></defs><path class="a" d="M68.58 85.79c-2.58-3.28-4.82-6.12-9.44-6-3.53.1-8.3 2-14.51 5.7l3 8.1c4-2.57 7.22-3.83 9.91-3.91 3.83-.1 6.39 2.08 9.63 4.85 5.43 4.64 12.88 11 31.76 10.48.58 0 1.19 0 1.8-.08l2.59-14.09c-6.88 2.45-12.62 3.72-17.41 3.85-10.11.31-13.91-4.6-17.33-8.9z"/><path class="a" d="M86.06 84c-4.18.11-6.72-2.18-9.66-4.83-3.8-3.44-8.11-7.33-17.4-7.07-5 .13-10.87 1.46-17.84 4l2.68 7.19c6.55-3.67 11.67-5.53 15.56-5.63 5.58-.15 8.17 3.15 10.91 6.64 3.17 4.05 6.46 8.24 14.87 8 5-.13 11.17-1.8 18.87-5l2.57-14.3c-9.31 7.42-15.78 10.87-20.56 11z"/><path class="a" d="M86.85 68.49a43.84 43.84 0 0 1-10.09-1.37 81.57 81.57 0 0 0-20.6-2.2 101.42 101.42 0 0 0-18.33 2.34l2.5 6.7c7-2.3 13-3.52 18.14-3.66 10.26-.28 15.31 3.73 19.38 7 2.84 2.25 5.29 4.19 8.79 4.1 4.66-.13 11.15-4 20.71-12.37l2.86-15.53C99.08 65.6 92.87 68.32 86.85 68.49zM67.53 97.74C64 95.08 61.14 93 57.3 93.08c-2.46.07-5.28 1.06-8.7 3l.06.15a15 15 0 0 0 8.22 7.93L92.34 116a5.36 5.36 0 0 0 7.15-4.22l.63-3.43c-18.5-.12-26.6-6.15-32.59-10.61z"/><path class="a" d="M108.2 34L41 57.67a6.2 6.2 0 0 0-3.92 7.52 114.18 114.18 0 0 1 20-2.44A114.82 114.82 0 0 1 75 63.81a69.66 69.66 0 0 0 9.88.73c7.42-.2 14.31-3 26.27-16l1.85-10.4c.66-3.42-1.52-5.28-4.8-4.14z"/></svg>